<svg xmlns="http://www.w3.org/2000/svg" viewBox="0 0 64 64" role="img" aria-label="RepoRAG favicon">
  <defs>
    <linearGradient id="bg" x1="0%" y1="0%" x2="100%" y2="100%">
      <stop offset="0%" stop-color="#f1dfb7" />
      <stop offset="100%" stop-color="#c28a30" />
    </linearGradient>
    <linearGradient id="accent" x1="0%" y1="0%" x2="100%" y2="100%">
      <stop offset="0%" stop-color="#7b9b72" />
      <stop offset="100%" stop-color="#476543" />
    </linearGradient>
  </defs>
  <rect width="64" height="64" rx="18" fill="#15202b" />
  <rect x="6" y="6" width="52" height="52" rx="14" fill="url(#bg)" />
  <path d="M20 18h14c8 0 13 4.8 13 12 0 4.9-2.4 8.4-6.7 10.4L47 46H37.2l-5.3-4.8H28V46h-8V18zm8 7v9.7h5c3.8 0 6-1.7 6-4.9 0-3.1-2.2-4.8-6-4.8h-5z" fill="#15202b" />
  <circle cx="48" cy="48" r="8" fill="url(#accent)" />
  <path d="M45 48h6M48 45v6" stroke="#f8fafc" stroke-width="2.4" stroke-linecap="round" />
</svg>
